<svg width="28" height="27" viewBox="0 0 28 27" fill="none" xmlns="http://www.w3.org/2000/svg">
<ellipse cx="13.6607" cy="13.1767" rx="13.0781" ry="13.1767" fill="white"/>
<path d="M14.887 0C7.8902 0 2.22308 5.70986 2.22308 12.7595C2.22308 18.4055 5.84814 23.1744 10.8821 24.865C11.5153 24.9767 11.7527 24.5939 11.7527 24.2589C11.7527 23.9559 11.7369 22.9511 11.7369 21.8825C8.55506 22.4726 7.7319 21.101 7.47862 20.3832C7.33615 20.0164 6.71879 18.884 6.18057 18.581C5.73733 18.3417 5.10413 17.7516 6.16474 17.7357C7.16202 17.7197 7.87437 18.6607 8.11182 19.0435C9.25158 20.9734 11.072 20.4311 11.8002 20.0962C11.911 19.2668 12.2434 18.7086 12.6075 18.3896C9.78979 18.0706 6.84543 16.9701 6.84543 12.0896C6.84543 10.702 7.33615 9.55365 8.14348 8.66049C8.01684 8.3415 7.5736 7.03366 8.27012 5.27923C8.27012 5.27923 9.33073 4.94429 11.7527 6.58707C12.7658 6.29999 13.8423 6.15644 14.9187 6.15644C15.9951 6.15644 17.0716 6.29999 18.0847 6.58707C20.5067 4.92834 21.5673 5.27923 21.5673 5.27923C22.2638 7.03366 21.8206 8.3415 21.6939 8.66049C22.5012 9.55365 22.992 10.6861 22.992 12.0896C22.992 16.986 20.0318 18.0706 17.214 18.3896C17.6731 18.7883 18.0689 19.5539 18.0689 20.7501C18.0689 22.4567 18.053 23.8283 18.053 24.2589C18.053 24.5939 18.2905 24.9926 18.9237 24.865C21.4378 24.0101 23.6225 22.3822 25.1702 20.2106C26.7179 18.039 27.5505 15.433 27.551 12.7595C27.551 5.70986 21.8839 0 14.887 0Z" fill="black"/>
</svg>
