<svg width="28" height="28" viewBox="0 0 28 28" fill="none" xmlns="http://www.w3.org/2000/svg">
<ellipse cx="13.3778" cy="13.8295" rx="13.0781" ry="13.1767" fill="white"/>
<ellipse cx="14.6037" cy="13.0974" rx="12.6637" ry="12.4447" fill="#131313"/>
<g clip-path="url(#clip0_2_17)">
<path d="M15 4C12.5576 4 12.2505 4.01125 11.2909 4.054C10.3313 4.099 9.67762 4.24975 9.105 4.4725C8.50436 4.69842 7.9603 5.0528 7.51088 5.51088C7.05309 5.96053 6.69875 6.50452 6.4725 7.105C6.24975 7.6765 6.09787 8.33125 6.054 9.2875C6.01125 10.2494 6 10.5554 6 13.0011C6 15.4446 6.01125 15.7506 6.054 16.7103C6.099 17.6688 6.24975 18.3224 6.4725 18.895C6.70312 19.4867 7.01025 19.9885 7.51088 20.4891C8.01038 20.9897 8.51213 21.298 9.10388 21.5275C9.67763 21.7502 10.3301 21.9021 11.2886 21.946C12.2494 21.9888 12.5554 22 15 22C17.4446 22 17.7495 21.9888 18.7103 21.946C19.6676 21.901 20.3235 21.7502 20.8961 21.5275C21.4964 21.3015 22.04 20.9471 22.4891 20.4891C22.9897 19.9885 23.2969 19.4867 23.5275 18.895C23.7491 18.3224 23.901 17.6688 23.946 16.7103C23.9888 15.7506 24 15.4446 24 13C24 10.5554 23.9888 10.2494 23.946 9.28863C23.901 8.33125 23.7491 7.6765 23.5275 7.105C23.3013 6.5045 22.9469 5.96051 22.4891 5.51088C22.0398 5.05264 21.4957 4.69823 20.895 4.4725C20.3212 4.24975 19.6665 4.09787 18.7091 4.054C17.7484 4.01125 17.4435 4 14.9978 4H15.0011H15ZM14.1934 5.62225H15.0011C17.4041 5.62225 17.6887 5.63013 18.6371 5.674C19.5146 5.71338 19.9916 5.86075 20.3089 5.98338C20.7285 6.1465 21.0289 6.34225 21.3439 6.65725C21.6589 6.97225 21.8535 7.2715 22.0166 7.69225C22.1404 8.00838 22.2866 8.48538 22.326 9.36287C22.3699 10.3113 22.3789 10.5959 22.3789 12.9978C22.3789 15.3996 22.3699 15.6854 22.326 16.6337C22.2866 17.5112 22.1392 17.9871 22.0166 18.3044C21.8723 18.6952 21.642 19.0485 21.3427 19.3383C21.0277 19.6532 20.7285 19.8479 20.3078 20.011C19.9928 20.1348 19.5157 20.281 18.6371 20.3215C17.6887 20.3643 17.4041 20.3744 15.0011 20.3744C12.5981 20.3744 12.3124 20.3643 11.364 20.3215C10.4865 20.281 10.0106 20.1348 9.69338 20.011C9.30244 19.8669 8.94877 19.637 8.65837 19.3383C8.35884 19.048 8.12819 18.6944 7.98338 18.3032C7.86075 17.9871 7.71338 17.5101 7.674 16.6326C7.63125 15.6842 7.62225 15.3996 7.62225 12.9955C7.62225 10.5925 7.63125 10.309 7.674 9.36062C7.7145 8.48312 7.86075 8.00612 7.9845 7.68887C8.14762 7.26925 8.34337 6.96887 8.65837 6.65387C8.97337 6.33888 9.27262 6.14425 9.69338 5.98112C10.0106 5.85738 10.4865 5.71113 11.364 5.67062C12.1943 5.63238 12.516 5.62113 14.1934 5.62V5.62225ZM19.8049 7.11625C19.663 7.11625 19.5226 7.14419 19.3916 7.19846C19.2605 7.25274 19.1415 7.33229 19.0412 7.43257C18.9409 7.53286 18.8614 7.65192 18.8071 7.78295C18.7528 7.91398 18.7249 8.05442 18.7249 8.19625C18.7249 8.33808 18.7528 8.47852 18.8071 8.60955C18.8614 8.74058 18.9409 8.85964 19.0412 8.95993C19.1415 9.06021 19.2605 9.13976 19.3916 9.19404C19.5226 9.24831 19.663 9.27625 19.8049 9.27625C20.0913 9.27625 20.366 9.16246 20.5686 8.95993C20.7711 8.75739 20.8849 8.48268 20.8849 8.19625C20.8849 7.90982 20.7711 7.63511 20.5686 7.43257C20.366 7.23004 20.0913 7.11625 19.8049 7.11625ZM15.0011 8.3785C14.3881 8.36894 13.7793 8.48142 13.2101 8.70941C12.6409 8.9374 12.1228 9.27633 11.6859 9.70648C11.249 10.1366 10.902 10.6494 10.6652 11.2149C10.4284 11.7804 10.3064 12.3874 10.3064 13.0006C10.3064 13.6137 10.4284 14.2207 10.6652 14.7862C10.902 15.3517 11.249 15.8645 11.6859 16.2946C12.1228 16.7248 12.6409 17.0637 13.2101 17.2917C13.7793 17.5197 14.3881 17.6322 15.0011 17.6226C16.2145 17.6037 17.3717 17.1084 18.2231 16.2437C19.0745 15.3789 19.5516 14.2141 19.5516 13.0006C19.5516 11.7871 19.0745 10.6222 18.2231 9.75747C17.3717 8.89272 16.2145 8.39743 15.0011 8.3785ZM15.0011 9.99963C15.7969 9.99963 16.56 10.3157 17.1227 10.8784C17.6854 11.4411 18.0015 12.2043 18.0015 13C18.0015 13.7957 17.6854 14.5589 17.1227 15.1216C16.56 15.6843 15.7969 16.0004 15.0011 16.0004C14.2054 16.0004 13.4422 15.6843 12.8795 15.1216C12.3169 14.5589 12.0008 13.7957 12.0008 13C12.0008 12.2043 12.3169 11.4411 12.8795 10.8784C13.4422 10.3157 14.2054 9.99963 15.0011 9.99963Z" fill="white"/>
</g>
<defs>
<clipPath id="clip0_2_17">
<rect width="18" height="18" fill="white" transform="translate(6 4)"/>
</clipPath>
</defs>
</svg>
