<svg width="27" height="27" viewBox="0 0 27 27" fill="none" xmlns="http://www.w3.org/2000/svg">
<ellipse cx="13.0781" cy="13.1767" rx="13.0781" ry="13.1767" fill="white"/>
<g clip-path="url(#clip0_2_24)">
<path d="M1.64038 1.78278C1.64038 0.79805 2.47302 0 3.50037 0H25.1079C26.1352 0 26.9678 0.79805 26.9678 1.78278V23.1077C26.9678 24.0924 26.1352 24.8904 25.1079 24.8904H3.50037C2.47302 24.8904 1.64038 24.0924 1.64038 23.1077V1.78278ZM9.46498 20.8364V9.59682H5.66428V20.8364H9.46498ZM7.56542 8.06139C8.89037 8.06139 9.71509 7.19956 9.71509 6.11994C9.69135 5.01698 8.89195 4.17848 7.59075 4.17848C6.28955 4.17848 5.4395 5.01853 5.4395 6.11994C5.4395 7.19956 6.26423 8.06139 7.5401 8.06139H7.56542V8.06139ZM15.3346 20.8364V14.5594C15.3346 14.2233 15.3599 13.8873 15.4613 13.6477C15.7351 12.9773 16.3604 12.2819 17.4115 12.2819C18.7871 12.2819 19.3364 13.3117 19.3364 14.8238V20.8364H23.1371V14.3898C23.1371 10.9362 21.2628 9.3308 18.7617 9.3308C16.745 9.3308 15.8412 10.4198 15.3346 11.1867V11.2256H15.3093C15.3177 11.2126 15.3261 11.1996 15.3346 11.1867V9.59682H11.5355C11.583 10.6516 11.5355 20.8364 11.5355 20.8364H15.3346Z" fill="black"/>
</g>
<defs>
<clipPath id="clip0_2_24">
<rect x="1.64038" width="25.3275" height="24.8904" rx="12.4452" fill="white"/>
</clipPath>
</defs>
</svg>
