<svg width="111" height="76" viewBox="0 0 111 76" fill="none" xmlns="http://www.w3.org/2000/svg">
<g filter="url(#filter0_d_24_77)">
<path d="M66.7611 2H75.123V41.4205C75.123 44.9861 74.4172 48.0358 73.0054 50.5697C71.6118 53.1037 69.648 55.0403 67.1141 56.3796C64.5802 57.7009 61.6118 58.3615 58.2092 58.3615C55.078 58.3615 52.2635 57.7914 49.7658 56.6511C47.2862 55.5109 45.3224 53.8548 43.8745 51.6828C42.4446 49.4929 41.7296 46.8323 41.7296 43.701H50.0644C50.0644 45.2395 50.4174 46.5698 51.1233 47.692C51.8472 48.8141 52.8336 49.6919 54.0825 50.3254C55.3495 50.9408 56.7975 51.2485 58.4263 51.2485C60.2001 51.2485 61.7024 50.8775 62.9331 50.1353C64.182 49.3752 65.1322 48.2621 65.7838 46.796C66.4354 45.33 66.7611 43.5381 66.7611 41.4205V2Z" fill="#050505"/>
<path d="M59.8037 2.77304H68.1656V42.1936C68.1656 45.7591 67.4597 48.8089 66.048 51.3428C64.6543 53.8767 62.6906 55.8134 60.1567 57.1527C57.6228 58.474 54.6544 59.1345 51.2518 59.1345C48.1205 59.1345 45.3061 58.5644 42.8084 57.4242C40.3287 56.2839 38.365 54.6278 36.917 52.4559C35.4872 50.2659 34.7722 47.6053 34.7722 44.4741H43.107C43.107 46.0125 43.46 47.3428 44.1658 48.465C44.8898 49.5872 45.8762 50.465 47.1251 51.0985C48.392 51.7138 49.84 52.0215 51.4689 52.0215C53.2427 52.0215 54.7449 51.6505 55.9757 50.9084C57.2246 50.1482 58.1748 49.0351 58.8263 47.569C59.4779 46.103 59.8037 44.3112 59.8037 42.1936V2.77304Z" fill="white"/>
<path d="M59.8037 2.77224V2H59.0315V2.77224H59.8037ZM68.1656 2.77224H68.9379V2H68.1656V2.77224ZM66.048 51.342L65.3734 50.9661L65.3713 50.9698L66.048 51.342ZM60.1567 57.1519L60.5137 57.8366L60.5175 57.8346L60.1567 57.1519ZM42.8084 57.4234L42.4857 58.125L42.4877 58.1259L42.8084 57.4234ZM36.917 52.4551L36.2704 52.8773L36.2745 52.8835L36.917 52.4551ZM34.7722 44.4733V43.7011H34V44.4733H34.7722ZM43.107 44.4733H43.8793V43.7011H43.107V44.4733ZM44.1658 48.4642L43.5122 48.8754L43.5169 48.8828L44.1658 48.4642ZM47.1251 51.0977L46.7757 51.7864L46.7817 51.7894L46.7877 51.7923L47.1251 51.0977ZM55.9757 50.9076L56.3744 51.5689L56.3772 51.5672L55.9757 50.9076ZM59.8037 3.54448H68.1656V2H59.8037V3.54448ZM67.3934 2.77224V42.1928H68.9379V2.77224H67.3934ZM67.3934 42.1928C67.3934 45.6566 66.7079 48.5706 65.3734 50.9661L66.7226 51.7178C68.2115 49.0455 68.9379 45.86 68.9379 42.1928H67.3934ZM65.3713 50.9698C64.0497 53.3729 62.1951 55.2009 59.7958 56.4692L60.5175 57.8346C63.186 56.4241 65.259 54.379 66.7246 51.7142L65.3713 50.9698ZM59.7996 56.4672C57.3951 57.7209 54.5537 58.3615 51.2518 58.3615V59.906C54.7551 59.906 57.8504 59.2253 60.5137 57.8366L59.7996 56.4672ZM51.2518 58.3615C48.2157 58.3615 45.5129 57.8091 43.1291 56.7209L42.4877 58.1259C45.0993 59.3181 48.0254 59.906 51.2518 59.906V58.3615ZM43.131 56.7218C40.7751 55.6384 38.9245 54.0742 37.5596 52.0267L36.2745 52.8835C37.8054 55.1799 39.8825 56.9278 42.4857 58.125L43.131 56.7218ZM37.5636 52.0329C36.2307 49.9914 35.5445 47.4845 35.5445 44.4733H34C34 47.7245 34.7436 50.5388 36.2704 52.8773L37.5636 52.0329ZM34.7722 45.2455H43.107V43.7011H34.7722V45.2455ZM42.3348 44.4733C42.3348 46.1334 42.7171 47.6114 43.5122 48.8754L44.8195 48.053C44.2029 47.0727 43.8793 45.89 43.8793 44.4733H42.3348ZM43.5169 48.8828C44.3188 50.1256 45.4111 51.0941 46.7757 51.7864L47.4744 50.409C46.3414 49.8342 45.4609 49.0471 44.8147 48.0455L43.5169 48.8828ZM46.7877 51.7923C48.1751 52.4661 49.7414 52.793 51.4689 52.793V51.2485C49.9386 51.2485 48.609 50.9599 47.4625 50.403L46.7877 51.7923ZM51.4689 52.793C53.3504 52.793 54.998 52.3988 56.3744 51.5689L55.577 50.2462C54.4918 50.9005 53.1349 51.2485 51.4689 51.2485V52.793ZM56.3772 51.5672C57.7734 50.7174 58.8232 49.4769 59.532 47.8819L58.1207 47.2546C57.5264 48.5917 56.6757 49.5774 55.5742 50.2479L56.3772 51.5672ZM59.532 47.8819C60.2392 46.2909 60.576 44.3855 60.576 42.1928H59.0315C59.0315 44.2352 58.7167 45.9135 58.1207 47.2546L59.532 47.8819ZM60.576 42.1928V2.77224H59.0315V42.1928H60.576Z" fill="white"/>
</g>
<path d="M0.656 60.496H2.448L5.584 69.328L5.312 69.216L7.6 63.296L8.32 65.392L5.264 72.528L0.656 60.496ZM6.208 60.496H7.76L11.152 69.2L10.832 69.136L13.824 60.496H15.472L10.928 72.512L6.208 60.496ZM19.0086 72.16C18.2513 72.16 17.6006 72.0107 17.0566 71.712C16.5126 71.4027 16.0913 70.9867 15.7926 70.464C15.5046 69.9307 15.3606 69.3227 15.3606 68.64C15.3606 67.9893 15.526 67.3973 15.8566 66.864C16.1873 66.3307 16.63 65.904 17.1846 65.584C17.7393 65.264 18.358 65.104 19.0406 65.104C19.9153 65.104 20.6406 65.36 21.2166 65.872C21.7926 66.384 22.182 67.088 22.3846 67.984L16.9286 69.904L16.5766 69.024L21.0566 67.392L20.7366 67.6C20.6086 67.248 20.3953 66.944 20.0966 66.688C19.798 66.4213 19.4086 66.288 18.9286 66.288C18.5233 66.288 18.1606 66.3893 17.8406 66.592C17.5206 66.784 17.27 67.0507 17.0886 67.392C16.9073 67.7333 16.8166 68.1227 16.8166 68.56C16.8166 69.0187 16.9126 69.424 17.1046 69.776C17.2966 70.1173 17.558 70.3893 17.8886 70.592C18.23 70.784 18.614 70.88 19.0406 70.88C19.3286 70.88 19.606 70.8267 19.8726 70.72C20.15 70.6133 20.406 70.4747 20.6406 70.304L21.3286 71.408C20.998 71.632 20.6246 71.8133 20.2086 71.952C19.8033 72.0907 19.4033 72.16 19.0086 72.16ZM28.2811 72.16C27.6731 72.16 27.1345 72.0267 26.6651 71.76C26.2065 71.4933 25.8385 71.1573 25.5611 70.752L25.7371 70.288V72H24.2491V59.616H25.7211V66.896L25.6731 66.336C25.9398 65.9733 26.3185 65.68 26.8091 65.456C27.3105 65.2213 27.8651 65.104 28.4731 65.104C29.0705 65.104 29.6145 65.248 30.1051 65.536C30.5958 65.824 30.9851 66.2293 31.2731 66.752C31.5718 67.264 31.7211 67.8773 31.7211 68.592C31.7211 69.3387 31.5611 69.9787 31.2411 70.512C30.9318 71.0453 30.5158 71.456 29.9931 71.744C29.4705 72.0213 28.8998 72.16 28.2811 72.16ZM27.9771 70.896C28.4038 70.896 28.7878 70.7947 29.1291 70.592C29.4705 70.3893 29.7371 70.1173 29.9291 69.776C30.1211 69.424 30.2171 69.024 30.2171 68.576C30.2171 68.1493 30.1158 67.7653 29.9131 67.424C29.7211 67.072 29.4545 66.7947 29.1131 66.592C28.7825 66.3893 28.4038 66.288 27.9771 66.288C27.6145 66.288 27.2785 66.3573 26.9691 66.496C26.6598 66.6347 26.3985 66.8267 26.1851 67.072C25.9718 67.3067 25.8225 67.584 25.7371 67.904V69.232C25.8225 69.552 25.9665 69.84 26.1691 70.096C26.3718 70.3413 26.6278 70.5387 26.9371 70.688C27.2465 70.8267 27.5931 70.896 27.9771 70.896ZM39.164 72V60.432H42.316C43.4573 60.432 44.428 60.608 45.228 60.96C46.0387 61.312 46.6893 61.776 47.18 62.352C47.6707 62.928 48.028 63.568 48.252 64.272C48.4867 64.9653 48.604 65.6587 48.604 66.352C48.604 67.2267 48.4493 68.0107 48.14 68.704C47.8413 69.3973 47.4253 69.9893 46.892 70.48C46.3587 70.9707 45.7453 71.3493 45.052 71.616C44.3693 71.872 43.644 72 42.876 72H39.164ZM40.716 70.512H42.572C43.212 70.512 43.7987 70.416 44.332 70.224C44.876 70.032 45.3453 69.7547 45.74 69.392C46.1453 69.0293 46.46 68.5867 46.684 68.064C46.908 67.5307 47.02 66.928 47.02 66.256C47.02 65.5413 46.9027 64.9173 46.668 64.384C46.4333 63.84 46.1133 63.3867 45.708 63.024C45.3027 62.6613 44.844 62.3893 44.332 62.208C43.82 62.016 43.2813 61.92 42.716 61.92H40.716V70.512ZM53.9149 72.16C53.1575 72.16 52.5069 72.0107 51.9629 71.712C51.4189 71.4027 50.9975 70.9867 50.6989 70.464C50.4109 69.9307 50.2669 69.3227 50.2669 68.64C50.2669 67.9893 50.4322 67.3973 50.7629 66.864C51.0935 66.3307 51.5362 65.904 52.0909 65.584C52.6455 65.264 53.2642 65.104 53.9469 65.104C54.8215 65.104 55.5469 65.36 56.1229 65.872C56.6989 66.384 57.0882 67.088 57.2909 67.984L51.8349 69.904L51.4829 69.024L55.9629 67.392L55.6429 67.6C55.5149 67.248 55.3015 66.944 55.0029 66.688C54.7042 66.4213 54.3149 66.288 53.8349 66.288C53.4295 66.288 53.0669 66.3893 52.7469 66.592C52.4269 66.784 52.1762 67.0507 51.9949 67.392C51.8135 67.7333 51.7229 68.1227 51.7229 68.56C51.7229 69.0187 51.8189 69.424 52.0109 69.776C52.2029 70.1173 52.4642 70.3893 52.7949 70.592C53.1362 70.784 53.5202 70.88 53.9469 70.88C54.2349 70.88 54.5122 70.8267 54.7789 70.72C55.0562 70.6133 55.3122 70.4747 55.5469 70.304L56.2349 71.408C55.9042 71.632 55.5309 71.8133 55.1149 71.952C54.7095 72.0907 54.3095 72.16 53.9149 72.16ZM61.609 72.192L57.929 65.376H59.689L62.185 70.64L61.273 70.608L63.561 65.376H65.225L61.689 72.192H61.609ZM69.743 72.16C68.9857 72.16 68.335 72.0107 67.791 71.712C67.247 71.4027 66.8257 70.9867 66.527 70.464C66.239 69.9307 66.095 69.3227 66.095 68.64C66.095 67.9893 66.2603 67.3973 66.591 66.864C66.9217 66.3307 67.3643 65.904 67.919 65.584C68.4737 65.264 69.0923 65.104 69.775 65.104C70.6497 65.104 71.375 65.36 71.951 65.872C72.527 66.384 72.9163 67.088 73.119 67.984L67.663 69.904L67.311 69.024L71.791 67.392L71.471 67.6C71.343 67.248 71.1297 66.944 70.831 66.688C70.5323 66.4213 70.143 66.288 69.663 66.288C69.2577 66.288 68.895 66.3893 68.575 66.592C68.255 66.784 68.0043 67.0507 67.823 67.392C67.6417 67.7333 67.551 68.1227 67.551 68.56C67.551 69.0187 67.647 69.424 67.839 69.776C68.031 70.1173 68.2923 70.3893 68.623 70.592C68.9643 70.784 69.3483 70.88 69.775 70.88C70.063 70.88 70.3403 70.8267 70.607 70.72C70.8843 70.6133 71.1403 70.4747 71.375 70.304L72.063 71.408C71.7323 71.632 71.359 71.8133 70.943 71.952C70.5377 72.0907 70.1377 72.16 69.743 72.16ZM74.9835 59.616H76.4715V72H74.9835V59.616ZM78.47 68.624C78.47 67.9627 78.6247 67.3653 78.934 66.832C79.254 66.2987 79.6913 65.8773 80.246 65.568C80.8007 65.2587 81.43 65.104 82.134 65.104C82.8593 65.104 83.494 65.2587 84.038 65.568C84.582 65.8773 85.0033 66.2987 85.302 66.832C85.6007 67.3653 85.75 67.9627 85.75 68.624C85.75 69.2853 85.6007 69.888 85.302 70.432C85.0033 70.9653 84.5767 71.3867 84.022 71.696C83.478 72.0053 82.8433 72.16 82.118 72.16C81.414 72.16 80.7847 72.016 80.23 71.728C79.686 71.4293 79.254 71.0187 78.934 70.496C78.6247 69.9627 78.47 69.3387 78.47 68.624ZM79.958 68.64C79.958 69.0667 80.054 69.456 80.246 69.808C80.438 70.1493 80.694 70.4213 81.014 70.624C81.3447 70.8267 81.7073 70.928 82.102 70.928C82.518 70.928 82.886 70.8267 83.206 70.624C83.5367 70.4213 83.7927 70.1493 83.974 69.808C84.1553 69.456 84.246 69.0667 84.246 68.64C84.246 68.2133 84.1553 67.8293 83.974 67.488C83.7927 67.136 83.5367 66.8587 83.206 66.656C82.886 66.4427 82.518 66.336 82.102 66.336C81.6967 66.336 81.3287 66.4427 80.998 66.656C80.678 66.8693 80.422 67.152 80.23 67.504C80.0487 67.8453 79.958 68.224 79.958 68.64ZM91.6688 72.16C91.1674 72.16 90.6821 72.0427 90.2128 71.808C89.7541 71.5733 89.3968 71.2587 89.1408 70.864L89.2368 70.4V75.184H87.7648V65.28H89.0448L89.2528 66.976L89.0928 66.512C89.4128 66.1067 89.8181 65.7707 90.3088 65.504C90.7994 65.2373 91.3488 65.104 91.9568 65.104C92.5754 65.104 93.1301 65.2533 93.6208 65.552C94.1221 65.8507 94.5168 66.2667 94.8048 66.8C95.0928 67.3333 95.2368 67.9573 95.2368 68.672C95.2368 69.3867 95.0821 70.0053 94.7728 70.528C94.4634 71.0507 94.0368 71.456 93.4928 71.744C92.9594 72.0213 92.3514 72.16 91.6688 72.16ZM91.3808 70.976C91.8074 70.976 92.1968 70.88 92.5488 70.688C92.9114 70.4853 93.1994 70.2133 93.4128 69.872C93.6261 69.52 93.7328 69.1253 93.7328 68.688C93.7328 68.24 93.6314 67.8453 93.4288 67.504C93.2261 67.152 92.9541 66.8747 92.6128 66.672C92.2821 66.4693 91.9088 66.368 91.4928 66.368C91.1088 66.368 90.7621 66.4427 90.4528 66.592C90.1434 66.7413 89.8874 66.9493 89.6848 67.216C89.4821 67.472 89.3381 67.7707 89.2528 68.112V69.216C89.3061 69.5573 89.4341 69.8613 89.6368 70.128C89.8394 70.3947 90.0901 70.6027 90.3888 70.752C90.6981 70.9013 91.0288 70.976 91.3808 70.976ZM100.321 72.16C99.5638 72.16 98.9131 72.0107 98.3691 71.712C97.8251 71.4027 97.4038 70.9867 97.1051 70.464C96.8171 69.9307 96.6731 69.3227 96.6731 68.64C96.6731 67.9893 96.8385 67.3973 97.1691 66.864C97.4998 66.3307 97.9425 65.904 98.4971 65.584C99.0518 65.264 99.6705 65.104 100.353 65.104C101.228 65.104 101.953 65.36 102.529 65.872C103.105 66.384 103.494 67.088 103.697 67.984L98.2411 69.904L97.8891 69.024L102.369 67.392L102.049 67.6C101.921 67.248 101.708 66.944 101.409 66.688C101.11 66.4213 100.721 66.288 100.241 66.288C99.8358 66.288 99.4731 66.3893 99.1531 66.592C98.8331 66.784 98.5825 67.0507 98.4011 67.392C98.2198 67.7333 98.1291 68.1227 98.1291 68.56C98.1291 69.0187 98.2251 69.424 98.4171 69.776C98.6091 70.1173 98.8705 70.3893 99.2011 70.592C99.5425 70.784 99.9265 70.88 100.353 70.88C100.641 70.88 100.918 70.8267 101.185 70.72C101.462 70.6133 101.718 70.4747 101.953 70.304L102.641 71.408C102.31 71.632 101.937 71.8133 101.521 71.952C101.116 72.0907 100.716 72.16 100.321 72.16ZM106.89 65.376L107.034 67.296L106.954 67.04C107.124 66.6347 107.37 66.2933 107.69 66.016C108.02 65.728 108.362 65.5093 108.714 65.36C109.076 65.2 109.391 65.12 109.658 65.12L109.578 66.592C109.076 66.56 108.634 66.656 108.25 66.88C107.876 67.104 107.578 67.4027 107.354 67.776C107.14 68.1493 107.034 68.5493 107.034 68.976V72H105.562V65.376H106.89Z" fill="black"/>
<defs>
<filter id="filter0_d_24_77" x="30" y="0" width="45.123" height="61.906" filterUnits="userSpaceOnUse" color-interpolation-filters="sRGB">
<feFlood flood-opacity="0" result="BackgroundImageFix"/>
<feColorMatrix in="SourceAlpha" type="matrix" values="0 0 0 0 0 0 0 0 0 0 0 0 0 0 0 0 0 0 127 0" result="hardAlpha"/>
<feOffset dx="-2"/>
<feGaussianBlur stdDeviation="1"/>
<feComposite in2="hardAlpha" operator="out"/>
<feColorMatrix type="matrix" values="0 0 0 0 0 0 0 0 0 0 0 0 0 0 0 0 0 0 0.25 0"/>
<feBlend mode="normal" in2="BackgroundImageFix" result="effect1_dropShadow_24_77"/>
<feBlend mode="normal" in="SourceGraphic" in2="effect1_dropShadow_24_77" result="shape"/>
</filter>
</defs>
</svg>
