<svg width="510" height="663" viewBox="0 0 510 663" fill="none" xmlns="http://www.w3.org/2000/svg">
<path d="M78.3446 646.013L94.2159 646.012L101.767 586.15L78.3411 586.151L78.3446 646.013Z" fill="#A65448"/>
<path d="M77.7855 662.203L126.595 662.201V661.597C126.594 656.671 124.593 651.946 121.03 648.463C117.467 644.979 112.635 643.022 107.597 643.022H107.596L98.68 636.408L82.0454 643.023L77.7847 643.023L77.7855 662.203Z" fill="#2F2E41"/>
<path d="M103.976 573.587L116.471 583.157L160.169 540.585L141.727 526.461L103.976 573.587Z" fill="#A65448"/>
<path d="M93.3246 585.995L131.749 615.424L132.13 614.949C135.237 611.071 136.641 606.144 136.033 601.254C135.425 596.363 132.856 591.909 128.89 588.871L128.889 588.87L126.041 578.288L108.775 573.465L105.42 570.896L93.3246 585.995Z" fill="#2F2E41"/>
<path d="M178.702 300.835C178.702 300.835 199.768 322.196 190.405 371.782L198.265 456.687L200.294 460.617C201.503 462.959 201.925 465.614 201.5 468.205C201.075 470.795 199.825 473.188 197.928 475.044L196.257 480.11L194.696 490.028L136.571 575.469L114.335 552.583L150.224 472.482L140.472 451.884L117.846 380.174L102.241 511.388L105.362 624.293H75.4962L56.9893 498.419L37.484 321.433L47.6298 300.835H178.702Z" fill="#2F2E41"/>
<path d="M42.3486 337.538L42.1357 337.246C30.7677 321.684 47.8652 284.29 50.4439 278.869C47.3818 277.898 44.7588 275.918 43.0216 273.268C41.2845 270.618 40.5407 267.461 40.9168 264.334L42.0284 255.095L43.1871 246.032L34.886 237.915L34.8626 237.713L30.0854 196.842L23.1396 169.695C20.5224 159.433 20.7455 148.674 23.7858 138.524C26.8261 128.374 32.5742 119.198 40.4399 111.937L56.4953 109.445L76.0076 91.062H107.473L118.262 101.141C138.403 104.595 141.863 103.467 159.163 123.766L151.302 186.876L149.341 195.558L149.347 207.334L154.332 212.752C156.128 214.703 157.433 217.038 158.143 219.57C158.854 222.102 158.949 224.761 158.423 227.335L157.767 230.54C162.909 232.695 167.816 270.987 168.988 276.335L170.739 284.325C172.237 286.258 182.126 299.15 182.126 302.674C182.126 303.203 181.726 303.715 180.869 304.282C174.13 308.744 147.263 340.395 130.778 333.945C113.218 327.08 43.4146 337.378 42.7113 337.483L42.3486 337.538Z" fill="#3F3D56"/>
<path d="M38.1208 264.151C38.1208 264.151 46.2012 219.5 38.0607 202.707L5.76677 204.962L10.6814 268.663L38.9123 339.391C38.4814 341.571 38.6479 343.822 39.3948 345.918C40.1417 348.014 41.4424 349.88 43.165 351.325C44.8876 352.77 46.9706 353.744 49.2027 354.148C51.4347 354.552 53.7363 354.371 55.8737 353.624C58.0111 352.877 59.9083 351.59 61.3727 349.894C62.837 348.198 63.8164 346.154 64.2114 343.968C64.6064 341.782 64.4029 339.534 63.6215 337.45C62.8402 335.366 61.509 333.521 59.7628 332.103L38.1208 264.151Z" fill="#A8756E"/>
<path d="M5.76686 179.024L7.76552 157.743C8.51774 149.733 10.8821 141.948 14.7226 134.835C18.5632 127.723 23.804 121.422 30.1438 116.297C34.0829 113.136 38.8477 111.115 43.8997 110.463C48.9516 109.811 54.0895 110.554 58.7325 112.607C65.0073 115.432 69.951 120.481 72.5641 126.733C75.1772 132.986 75.2647 139.975 72.8089 146.288C65.3449 165.428 68.0401 185.67 53.4861 188.137L55.0673 195.493L40.7572 241.155L0 236.538L5.76686 179.024Z" fill="#3F3D56"/>
<path d="M220.726 242.988C220.726 242.988 197.071 203.985 179.7 196.445L156.722 218.746L202.933 263.905L271.507 299.523C272.634 301.45 274.262 303.051 276.226 304.164C278.19 305.276 280.42 305.861 282.69 305.859C284.96 305.856 287.189 305.266 289.15 304.149C291.112 303.032 292.736 301.427 293.858 299.498C294.98 297.569 295.56 295.383 295.539 293.164C295.518 290.945 294.897 288.77 293.739 286.861C292.581 284.953 290.926 283.377 288.944 282.296C286.962 281.214 284.723 280.665 282.453 280.703L220.726 242.988Z" fill="#A8756E"/>
<path d="M139.423 199.083L126.744 181.675C121.972 175.123 118.572 167.713 116.74 159.872C114.908 152.031 114.679 143.913 116.067 135.985C116.945 131.077 119.209 126.507 122.605 122.791C126 119.075 130.39 116.362 135.279 114.958C141.92 113.099 149.035 113.774 155.186 116.848C161.337 119.922 166.065 125.164 168.414 131.516C175.521 150.786 201.445 182.456 192.057 193.607L198.161 198.175L207.387 223.873L173.41 246.362L139.423 199.083Z" fill="#3F3D56"/>
<path d="M89.6173 82.1817C108.917 82.1817 124.562 66.8839 124.562 48.0131C124.562 29.1424 108.917 13.8446 89.6173 13.8446C70.3177 13.8446 54.6723 29.1424 54.6723 48.0131C54.6723 66.8839 70.3177 82.1817 89.6173 82.1817Z" fill="#A8756E"/>
<path d="M64.2569 72.0968C63.9519 71.8352 63.664 71.5559 63.3659 71.2871C63.3552 71.3147 63.3535 71.3429 63.3421 71.3704L64.2569 72.0968Z" fill="#2F2E41"/>
<path d="M118.255 11.9311C116.518 9.1982 114.114 6.93104 111.257 5.33422C109.305 4.4083 107.253 3.69754 105.14 3.215L99.6097 1.73963C96.7761 0.882303 93.8608 0.308345 90.9087 0.0266023C86.8092 -0.171135 82.733 0.736444 79.1253 2.65019C75.5175 4.56394 72.517 7.41026 70.4515 10.8783C68.7807 13.776 67.4404 17.387 64.2156 18.4472C61.6154 19.302 58.7784 18.0962 56.0456 18.3301C54.4442 18.557 52.9248 19.1666 51.622 20.105C50.3192 21.0433 49.2733 22.2813 48.5768 23.7094C47.2148 26.5831 46.5445 29.7239 46.6174 32.8904C46.51 40.0796 47.945 47.2109 50.8297 53.8244C53.7145 60.4379 57.9851 66.3868 63.3659 71.2872C64.2678 68.9626 62.7823 66.4529 61.6079 64.2292C60.4197 61.9792 59.6854 58.8423 61.6755 57.2217C63.89 55.4185 67.4378 57.1671 70.0567 55.9912C70.8946 55.5206 71.6002 54.8545 72.1106 54.0523C72.621 53.2501 72.9203 52.3368 72.9818 51.3939C73.2352 49.5256 72.9706 47.6264 73.0905 45.7454C73.2094 43.8808 73.7049 42.0577 74.5484 40.3813C75.3918 38.705 76.5666 37.2087 78.0048 35.9787C79.443 34.7488 81.1162 33.8096 82.9277 33.2155C84.7392 32.6213 86.6531 32.384 88.5589 32.5171C94.52 32.9334 100.305 36.9163 106.042 35.2778C108.734 34.5087 111.031 32.5504 113.816 32.221C116.9 31.8562 119.802 33.5581 122.421 35.1924C123.372 31.2412 123.494 27.1424 122.778 23.144C122.062 19.1456 120.523 15.331 118.255 11.9311Z" fill="#2F2E41"/>
<path d="M284.827 132.698V417.647C284.829 419.636 285.233 421.543 285.951 422.95C286.669 424.357 287.642 425.149 288.657 425.152H505.902C506.917 425.149 507.89 424.357 508.608 422.95C509.326 421.543 509.73 419.636 509.731 417.647V132.698C509.731 130.706 509.328 128.796 508.61 127.386C507.892 125.976 506.918 125.182 505.902 125.177H288.657C287.64 125.182 286.666 125.976 285.949 127.386C285.231 128.796 284.827 130.706 284.827 132.698Z" fill="white"/>
<path d="M422.904 147.732H371.654C369.564 147.732 367.869 150.011 367.869 152.823V159.557C367.869 162.368 369.564 164.648 371.654 164.648H422.904C424.995 164.648 426.69 162.368 426.69 159.557V152.823C426.69 150.011 424.995 147.732 422.904 147.732Z" fill="#6C63FF"/>
<path d="M452.884 191.713H341.674C339.58 191.713 337.882 193.992 337.882 196.804V203.538C337.882 206.35 339.58 208.629 341.674 208.629H452.884C454.979 208.629 456.677 206.35 456.677 203.538V196.804C456.677 193.992 454.979 191.713 452.884 191.713Z" fill="#E6E6E6"/>
<path d="M452.884 279.676H341.674C339.58 279.676 337.882 281.955 337.882 284.767V291.5C337.882 294.312 339.58 296.592 341.674 296.592H452.884C454.979 296.592 456.677 294.312 456.677 291.5V284.767C456.677 281.955 454.979 279.676 452.884 279.676Z" fill="#E6E6E6"/>
<path d="M452.884 235.694H341.674C339.58 235.694 337.882 237.974 337.882 240.785V247.519C337.882 250.331 339.58 252.61 341.674 252.61H452.884C454.979 252.61 456.677 250.331 456.677 247.519V240.785C456.677 237.974 454.979 235.694 452.884 235.694Z" fill="#E6E6E6"/>
<path d="M452.884 323.657H341.674C339.58 323.657 337.882 325.936 337.882 328.748V335.482C337.882 338.293 339.58 340.573 341.674 340.573H452.884C454.979 340.573 456.677 338.293 456.677 335.482V328.748C456.677 325.936 454.979 323.657 452.884 323.657Z" fill="#E6E6E6"/>
</svg>
