<svg width="403" height="449" viewBox="0 0 403 449" fill="none" xmlns="http://www.w3.org/2000/svg">
<path d="M158.489 158.27C194.868 158.27 224.359 128.794 224.359 92.4323C224.359 56.0711 194.868 26.5945 158.489 26.5945C122.11 26.5945 92.6187 56.0711 92.6187 92.4323C92.6187 128.794 122.11 158.27 158.489 158.27Z" fill="#A8756E"/>
<path d="M220.012 35.6329C210.164 19.6489 194.748 7.87093 176.733 2.56616L168.646 8.46441V0.805699C164.32 0.143825 159.941 -0.111148 155.567 0.0441339L148.59 6.35364V0.56833C138.26 1.85133 128.308 5.25965 119.362 10.5784C110.416 15.8971 102.67 23.0108 96.6111 31.471C81.4601 53.3023 78.9025 83.6744 93.8046 105.681C97.8949 93.1152 102.86 81.325 106.952 68.7606C110.167 69.1986 113.425 69.2145 116.645 68.8076L121.621 57.2002L123.012 68.3164C138.438 66.9735 161.319 64.0237 175.943 61.3215L174.521 52.7933L183.029 59.8797C187.509 58.849 190.169 57.9136 189.95 57.199C200.826 74.7249 214.137 85.9185 225.013 103.444C229.144 78.7319 233.898 58.1838 220.012 35.6329Z" fill="#2F2E41"/>
<path d="M300.156 261.736C297.891 248.116 295.555 234.234 289.222 221.964C285.059 213.927 278.452 206.268 269.545 204.679C267.79 204.523 266.066 204.124 264.421 203.494C261.811 202.237 226.739 182.226 221.165 178.741C216.379 175.749 208.823 170.209 205.014 170.209C201.181 170.124 186.485 173.543 129.125 169.061C129.125 169.061 113.368 175.269 101.175 182.797C100.99 182.675 41.6406 214.53 39.411 214.446C35.1884 214.269 31.2634 216.971 28.8427 220.374C26.4226 223.777 25.2873 227.989 24.0986 232.062C37.0616 260.916 48.922 289.807 61.8862 318.661C62.4932 319.748 62.8157 320.971 62.8238 322.215C62.5633 323.507 62.0117 324.722 61.211 325.769C54.8535 335.977 55.0557 348.815 55.7501 360.812C56.4452 372.809 57.3046 385.482 51.9405 396.235C50.4815 399.187 48.5841 401.889 47.1964 404.842C43.9467 411.528 42.7723 432.914 44.6704 440.098L282.477 446.907C277.364 432.859 300.156 261.736 300.156 261.736Z" fill="black"/>
<path d="M3.54281 319.941C3.06831 323.372 3.02053 326.848 3.40058 330.29L6.80895 379.215C7.12896 383.827 7.44388 388.426 7.87691 393.026C8.69471 401.953 9.91637 410.808 11.4326 419.651C11.4668 420.907 11.998 422.098 12.9096 422.962C13.8212 423.827 15.0387 424.294 16.295 424.263C31.2986 427.436 46.8001 427.309 62.1123 426.444C85.478 425.141 145.256 422.675 148.909 417.933C152.561 413.191 150.432 405.521 145.67 401.686C140.908 397.852 62.0221 388.504 62.0221 388.504C62.7929 382.398 65.1181 376.649 67.3238 370.852C71.2859 360.571 74.9863 349.952 75.0574 338.939C75.1285 327.926 70.9773 316.346 61.951 310.037C54.526 304.857 44.9663 303.896 35.9184 304.109C29.3353 304.298 17.961 302.722 11.9481 305.295C7.18992 307.389 4.43173 315.284 3.54281 319.941Z" fill="#A8756E"/>
<path d="M23.4127 232.941C22.2575 234.15 21.3617 235.582 20.7802 237.15C11.1931 258.746 5.53034 281.875 4.05716 305.456C4.08302 306.606 3.81788 307.744 3.28634 308.764C2.76216 309.442 2.17869 310.073 1.54281 310.649C0.988403 311.305 0.568865 312.065 0.308174 312.884C0.047482 313.703 -0.0492542 314.565 0.0234533 315.422C0.0961608 316.278 0.336903 317.112 0.73194 317.875C1.12698 318.638 1.66857 319.316 2.32579 319.87C2.43359 319.961 2.54422 320.049 2.65771 320.132C4.6146 316.452 9.29916 315.248 13.4631 314.929C33.4003 313.352 52.8751 322.623 72.872 321.923C71.4611 317.051 69.4319 312.368 68.2813 307.437C63.1929 285.541 75.8841 261.702 68.1036 240.612C66.5493 236.392 63.9523 232.243 59.8608 230.393C58.1665 229.71 56.3936 229.241 54.5831 228.997C49.5303 228.084 39.4716 224.184 34.5863 225.749C32.7831 226.33 32.072 228.025 30.5773 229.049C28.3068 230.499 25.2947 231.032 23.4127 232.941Z" fill="black"/>
<path d="M300.299 305.295C294.286 302.722 282.911 304.298 276.328 304.109C267.28 303.896 257.721 304.857 250.296 310.037C241.269 316.346 237.118 327.926 237.189 338.939C237.26 349.952 240.961 360.571 244.923 370.852C247.129 376.649 249.454 382.399 250.225 388.504C250.225 388.504 171.338 397.852 166.576 401.686C161.814 405.521 159.686 413.191 163.338 417.933C166.99 422.675 280.948 427.436 295.952 424.263C297.208 424.294 298.425 423.827 299.337 422.962C300.249 422.098 300.78 420.907 300.814 419.651C302.33 410.808 303.552 401.953 304.37 393.026C304.803 388.426 305.118 383.826 305.438 379.215L308.846 330.29C309.226 326.848 309.178 323.372 308.704 319.941C307.815 315.284 305.057 307.389 300.299 305.295Z" fill="#A8756E"/>
<path d="M281.669 229.049C280.175 228.025 279.464 226.33 277.66 225.749C272.775 224.184 262.717 228.084 257.664 228.997C255.853 229.241 254.08 229.71 252.386 230.393C248.294 232.243 245.698 236.392 244.143 240.612C236.363 261.702 249.054 285.541 243.965 307.437C242.815 312.368 240.786 317.051 239.375 321.923C259.372 322.623 278.847 313.352 298.784 314.929C302.948 315.248 307.632 316.452 309.589 320.132C309.702 320.049 309.813 319.961 309.921 319.87C310.578 319.316 311.12 318.638 311.515 317.875C311.91 317.112 312.151 316.278 312.223 315.422C312.296 314.565 312.199 313.703 311.939 312.884C311.678 312.065 311.258 311.305 310.704 310.649C310.068 310.073 309.485 309.442 308.96 308.764C308.429 307.744 308.164 306.606 308.19 305.456C306.716 281.875 301.054 258.746 291.467 237.15C290.885 235.582 289.989 234.15 288.834 232.941C286.952 231.032 283.94 230.499 281.669 229.049Z" fill="black"/>
<path d="M138.98 426.599C148.799 426.599 156.758 418.643 156.758 408.829C156.758 399.016 148.799 391.06 138.98 391.06C129.161 391.06 121.202 399.016 121.202 408.829C121.202 418.643 129.161 426.599 138.98 426.599Z" fill="#FBBEBE"/>
<path d="M178.346 426.599C188.165 426.599 196.125 418.643 196.125 408.829C196.125 399.016 188.165 391.06 178.346 391.06C168.528 391.06 160.568 399.016 160.568 408.829C160.568 418.643 168.528 426.599 178.346 426.599Z" fill="#FBBEBE"/>
<path d="M288.088 448.871H43.8401C40.9885 448.868 38.2546 447.734 36.2382 445.719C34.2217 443.703 33.0874 440.971 33.084 438.121V290.015C33.0874 287.165 34.2217 284.432 36.2382 282.417C38.2546 280.402 40.9885 279.268 43.8401 279.265H288.088C290.939 279.268 293.673 280.402 295.69 282.417C297.706 284.432 298.84 287.165 298.844 290.015V438.121C298.84 440.971 297.706 443.703 295.69 445.719C293.673 447.734 290.939 448.868 288.088 448.871Z" fill="#3F3D56"/>
<path d="M165.371 371.181C169.302 371.181 172.488 367.996 172.488 364.068C172.488 360.14 169.302 356.955 165.371 356.955C161.441 356.955 158.255 360.14 158.255 364.068C158.255 367.996 161.441 371.181 165.371 371.181Z" fill="white"/>
<path d="M97.9169 116.971C87.3329 116.971 78.7528 107.699 78.7528 96.2607V85.9053C78.7528 74.4671 87.3328 65.1946 97.9168 65.1946L97.9169 116.971Z" fill="#FF0000"/>
<path d="M220.235 65.1946C230.819 65.1946 239.399 74.4671 239.399 85.9053V96.2607C239.399 107.699 230.819 116.971 220.235 116.971V65.1946Z" fill="#FF0000"/>
<path d="M230.277 87.5326H227.236C227.236 45.8587 195.864 11.9543 157.302 11.9543C118.74 11.9543 87.3679 45.8587 87.3679 87.5326H84.3273C84.3273 44.0466 117.064 8.6683 157.302 8.6683C197.541 8.66832 230.277 44.0467 230.277 87.5326Z" fill="#FF0000"/>
<path d="M346.03 442.465C346.47 443.748 347.306 444.858 348.417 445.636C349.528 446.414 350.857 446.82 352.213 446.796L378.705 446.114C380.071 446.087 381.392 445.619 382.47 444.78C383.548 443.941 384.325 442.775 384.686 441.457L388.435 401.37C389.765 401.972 391.213 402.27 392.672 402.241C393.941 402.209 395.19 401.927 396.35 401.413C397.51 400.898 398.557 400.16 399.431 399.24C400.305 398.321 400.99 397.238 401.446 396.054C401.902 394.87 402.12 393.608 402.088 392.34C402.056 391.071 401.775 389.822 401.26 388.662C400.746 387.503 400.007 386.456 399.088 385.581C398.169 384.707 397.086 384.022 395.902 383.566C394.718 383.11 393.456 382.892 392.188 382.924C391.604 382.922 391.022 382.983 390.451 383.105C389.831 382.433 389.077 381.899 388.237 381.537C387.398 381.175 386.492 380.992 385.577 381.002L344.827 382.054C344.489 382.066 344.152 382.108 343.822 382.179C342.928 382.345 342.08 382.701 341.336 383.223C340.591 383.745 339.967 384.42 339.506 385.203C339.044 385.986 338.755 386.859 338.659 387.763C338.563 388.667 338.662 389.581 338.948 390.443L346.03 442.465ZM389.203 398.648L391.871 389.095C392.174 387.992 392.181 386.828 391.891 385.721C392.021 385.72 392.135 385.659 392.264 385.659C394.094 385.621 395.863 386.31 397.185 387.575C398.507 388.839 399.273 390.577 399.316 392.406C399.359 394.235 398.674 396.006 397.413 397.332C396.152 398.657 394.417 399.428 392.588 399.476C391.405 399.513 390.235 399.226 389.203 398.648Z" fill="#2F2E41"/>
<path d="M343.822 382.179C344.69 387.143 354.451 390.632 366.188 390.026C376.98 389.529 385.805 385.739 387.422 381.247C386.823 381.07 386.201 380.987 385.577 381.002L344.827 382.054C344.489 382.066 344.152 382.108 343.822 382.179Z" fill="#3F3D56"/>
<path d="M368.339 420.437C368.392 420.423 368.443 420.401 368.489 420.37L374.243 416.604C374.312 416.559 374.369 416.497 374.409 416.424C374.448 416.351 374.469 416.269 374.469 416.186C374.469 416.103 374.449 416.022 374.409 415.949C374.37 415.876 374.312 415.814 374.243 415.768L368.263 411.852C368.208 411.815 368.147 411.79 368.082 411.778C368.018 411.765 367.951 411.766 367.887 411.779C367.822 411.792 367.761 411.818 367.707 411.855C367.652 411.892 367.606 411.939 367.569 411.994C367.533 412.049 367.509 412.111 367.496 412.176C367.484 412.24 367.485 412.307 367.498 412.371C367.512 412.436 367.538 412.497 367.575 412.551C367.612 412.605 367.66 412.652 367.715 412.687L373.056 416.186L367.942 419.533C367.843 419.598 367.77 419.696 367.737 419.809C367.703 419.923 367.71 420.045 367.758 420.153C367.806 420.261 367.89 420.349 367.996 420.401C368.103 420.453 368.224 420.466 368.339 420.437Z" fill="#F80086"/>
<path d="M359.252 420.856C359.348 420.831 359.435 420.778 359.502 420.704C359.568 420.63 359.611 420.538 359.624 420.439C359.638 420.34 359.622 420.24 359.578 420.15C359.534 420.061 359.464 419.987 359.378 419.937L354.075 416.897L359.2 413.09C359.253 413.051 359.298 413.001 359.331 412.945C359.365 412.889 359.387 412.826 359.397 412.761C359.406 412.697 359.403 412.63 359.387 412.567C359.371 412.503 359.343 412.443 359.303 412.391C359.264 412.338 359.215 412.294 359.159 412.26C359.103 412.226 359.04 412.204 358.975 412.194C358.91 412.185 358.844 412.188 358.781 412.204C358.717 412.22 358.657 412.248 358.604 412.288L352.866 416.55C352.799 416.6 352.746 416.665 352.711 416.74C352.676 416.815 352.66 416.898 352.665 416.981C352.669 417.064 352.695 417.144 352.739 417.215C352.782 417.285 352.843 417.344 352.915 417.385L358.88 420.805C358.993 420.869 359.126 420.888 359.252 420.856Z" fill="#F80086"/>
<path d="M367.766 423.737C367.815 423.724 367.861 423.705 367.903 423.679C367.96 423.645 368.008 423.6 368.047 423.547C368.086 423.494 368.114 423.434 368.13 423.37C368.145 423.306 368.148 423.24 368.138 423.175C368.128 423.11 368.105 423.048 368.071 422.992L359.915 409.583C359.846 409.47 359.735 409.389 359.606 409.358C359.477 409.327 359.342 409.348 359.228 409.417C359.115 409.486 359.034 409.597 359.003 409.726C358.971 409.855 358.992 409.99 359.061 410.104L367.216 423.512C367.272 423.603 367.356 423.674 367.455 423.715C367.553 423.755 367.663 423.763 367.766 423.737Z" fill="#F80086"/>
</svg>
